<?xml version="1.0" encoding="utf-8"?>
<!-- Generator: Adobe Illustrator 19.2.1, SVG Export Plug-In . SVG Version: 6.00 Build 0)  -->
<svg version="1.1" id="layer" xmlns="http://www.w3.org/2000/svg" xmlns:xlink="http://www.w3.org/1999/xlink" x="0px" y="0px"
	 viewBox="0 0 652 652" style="enable-background:new 0 0 652 652;" xml:space="preserve">
<path d="M169.8,271.9c-0.7-0.7-1.1-1.5-1.1-2.4c0-0.9,0.4-1.7,1.1-2.4c1.5-1.3,3.7-1.3,5.1,0c0.7,0.7,1.1,1.5,1.1,2.4
	c0,0.9-0.4,1.7-1.1,2.4c-0.7,0.6-1.7,0.9-2.6,0.9C171.4,273,170.5,272.6,169.8,271.9 M160.8,281.4c-0.6-0.7-0.9-1.5-0.9-2.4
	c0-0.9,0.4-1.7,0.9-2.4c1.3-1.3,3.5-1.3,4.8,0c0.6,0.7,0.9,1.5,0.9,2.4c0,0.9-0.4,1.7-0.9,2.4c-0.7,0.6-1.5,0.9-2.4,0.9
	C162.3,282.3,161.5,282,160.8,281.4 M151,290.8c-0.6-0.6-0.9-1.5-0.9-2.4c0-0.9,0.4-1.7,0.9-2.4c1.3-1.3,3.5-1.3,4.8,0
	c0.6,0.6,0.9,1.5,0.9,2.4c0,0.9-0.4,1.7-0.9,2.4c-0.7,0.7-1.5,0.9-2.4,0.9C152.5,291.7,151.6,291.4,151,290.8 M141.7,300.2
	c-0.7-0.6-1.1-1.5-1.1-2.4c0-0.9,0.4-1.7,1.1-2.4c1.5-1.3,3.7-1.3,5.1,0c0.7,0.6,1.1,1.5,1.1,2.4c0,0.9-0.4,1.8-1.1,2.4
	c-0.7,0.7-1.7,0.9-2.6,0.9S142.4,300.9,141.7,300.2 M132.7,309.5c-0.7-0.6-0.9-1.5-0.9-2.4s0.4-1.7,0.9-2.4c1.3-1.3,3.5-1.3,4.8,0
	c0.7,0.6,0.9,1.5,0.9,2.4s-0.4,1.8-0.9,2.4c-0.6,0.7-1.5,0.9-2.4,0.9C134.1,310.6,133.2,310.3,132.7,309.5 M121.8,316.5
	c0-0.9,0.4-1.7,0.9-2.4c1.3-1.3,3.5-1.3,4.8,0c0.7,0.7,0.9,1.5,0.9,2.4c0,0.9-0.4,1.7-0.9,2.4c-0.6,0.6-1.5,0.9-2.4,0.9
	c-0.9,0-1.7-0.4-2.4-0.9C122.2,318.4,121.8,317.4,121.8,316.5z M104.4,337.3c-0.6-0.6-0.9-1.5-0.9-2.4c0-0.9,0.4-1.7,0.9-2.4
	c1.3-1.3,3.5-1.3,4.8,0c0.7,0.7,0.9,1.5,0.9,2.4c0,0.9-0.4,1.7-0.9,2.4c-0.6,0.7-1.5,0.9-2.4,0.9C105.8,338.4,105.1,338,104.4,337.3
	 M94.6,346.7c-0.7-0.6-1.1-1.5-1.1-2.4c0-0.9,0.4-1.7,1.1-2.4c1.5-1.3,3.7-1.3,5.1,0c0.7,0.7,1.1,1.5,1.1,2.4c0,0.9-0.4,1.7-1.1,2.4
	c-0.7,0.7-1.7,0.9-2.6,0.9C96.3,347.8,95.4,347.4,94.6,346.7 M85.6,356.2c-0.6-0.6-0.9-1.5-0.9-2.4c0-0.9,0.4-1.8,0.9-2.4
	c1.3-1.3,3.5-1.3,4.8,0c0.6,0.6,0.9,1.5,0.9,2.4c0,0.9-0.4,1.7-0.9,2.4c-0.7,0.7-1.5,0.9-2.4,0.9S86.4,356.8,85.6,356.2 M76.3,365.6
	c-0.7-0.6-0.9-1.5-0.9-2.4c0-0.9,0.4-1.7,0.9-2.4c1.3-1.3,3.5-1.3,4.8,0c0.6,0.7,0.9,1.5,0.9,2.4c0,0.9-0.4,1.8-0.9,2.4
	c-0.7,0.7-1.5,0.9-2.4,0.9C77.7,366.5,76.8,366.3,76.3,365.6 M66.5,375c-0.7-0.6-1.1-1.5-1.1-2.4c0-0.9,0.4-1.7,1.1-2.4
	c1.5-1.3,3.7-1.3,5,0c0.7,0.7,1.1,1.5,1.1,2.4c0,0.9-0.4,1.8-1.1,2.4c-0.7,0.6-1.7,0.9-2.6,0.9C68,375.9,67.1,375.7,66.5,375
	 M57.3,384.3c-0.7-0.7-0.9-1.5-0.9-2.4c0-0.9,0.4-1.7,0.9-2.4c1.3-1.3,3.5-1.3,4.8,0c0.7,0.7,0.9,1.5,0.9,2.4c0,0.9-0.4,1.7-0.9,2.4
	c-0.6,0.6-1.5,0.9-2.4,0.9C59,385.4,58.1,385.1,57.3,384.3 M62.1,271.9c0.6-0.7,0.9-1.5,0.9-2.4c0-0.9-0.4-1.7-0.9-2.4
	c-1.3-1.3-3.5-1.3-4.8,0c-0.7,0.7-0.9,1.5-0.9,2.4c0,0.9,0.4,1.7,0.9,2.4c0.6,0.6,1.5,0.9,2.4,0.9C60.6,273,61.5,272.6,62.1,271.9
	 M71.5,281.4c0.7-0.7,1.1-1.5,1.1-2.4c0-0.9-0.4-1.7-1.1-2.4c-1.5-1.3-3.7-1.3-5.1,0c-0.7,0.7-1.1,1.5-1.1,2.4
	c0,0.9,0.4,1.7,1.1,2.4c0.7,0.6,1.7,0.9,2.6,0.9C69.8,282.3,70.7,282,71.5,281.4 M81,290.8c0.6-0.6,0.9-1.5,0.9-2.4
	c0-0.9-0.4-1.7-0.9-2.4c-1.3-1.3-3.5-1.3-4.8,0c-0.6,0.6-0.9,1.5-0.9,2.4c0,0.9,0.4,1.7,0.9,2.4c0.7,0.7,1.5,0.9,2.4,0.9
	C79.4,291.7,80.3,291.4,81,290.8 M90.4,300.2c0.6-0.6,0.9-1.5,0.9-2.4c0-0.9-0.4-1.7-0.9-2.4c-1.3-1.3-3.5-1.3-4.8,0
	c-0.6,0.6-0.9,1.5-0.9,2.4c0,0.9,0.4,1.8,0.9,2.4c0.7,0.7,1.5,0.9,2.4,0.9C88.7,301.1,89.7,300.9,90.4,300.2 M99.6,309.5
	c0.7-0.6,1.1-1.5,1.1-2.4s-0.4-1.7-1.1-2.4c-1.3-1.3-3.7-1.3-5,0c-0.7,0.6-1.1,1.5-1.1,2.4s0.4,1.8,1.1,2.4c0.7,0.7,1.7,0.9,2.6,0.9
	C98.1,310.6,99,310.3,99.6,309.5 M110.1,316.5c0-0.9-0.4-1.7-0.9-2.4c-1.3-1.3-3.5-1.3-4.8,0c-0.7,0.7-0.9,1.5-0.9,2.4
	c0,0.9,0.4,1.7,0.9,2.4c0.6,0.6,1.5,0.9,2.4,0.9c0.9,0,1.7-0.4,2.4-0.9C109.9,318.4,110.1,317.4,110.1,316.5z M118.5,328.5
	c0.7-0.7,0.9-1.5,0.9-2.4c0-0.9-0.4-1.7-0.9-2.4c-1.3-1.3-3.5-1.3-4.8,0c-0.7,0.7-0.9,1.5-0.9,2.4c0,0.9,0.4,1.7,0.9,2.4
	c0.6,0.6,1.5,0.9,2.4,0.9S118,329,118.5,328.5 M127.9,337.3c0.7-0.6,1.1-1.5,1.1-2.4c0-0.9-0.4-1.7-1.1-2.4c-1.5-1.3-3.7-1.3-5,0
	c-0.7,0.7-1.1,1.5-1.1,2.4c0,0.9,0.4,1.7,1.1,2.4c0.7,0.7,1.7,0.9,2.6,0.9C126.2,338.4,127.2,338,127.9,337.3 M137.4,346.7
	c0.6-0.6,0.9-1.5,0.9-2.4c0-0.9-0.4-1.7-0.9-2.4c-1.3-1.3-3.5-1.3-4.8,0c-0.6,0.7-0.9,1.5-0.9,2.4c0,0.9,0.4,1.7,0.9,2.4
	c0.7,0.7,1.5,0.9,2.4,0.9C135.8,347.8,136.7,347.4,137.4,346.7 M146.8,356.2c0.6-0.6,0.9-1.5,0.9-2.4c0-0.9-0.4-1.8-0.9-2.4
	c-1.3-1.3-3.5-1.3-4.8,0c-0.6,0.6-0.9,1.5-0.9,2.4c0,0.9,0.4,1.7,0.9,2.4c0.7,0.7,1.5,0.9,2.4,0.9S146.1,356.8,146.8,356.2
	 M155.6,365.6c0.7-0.6,0.9-1.5,0.9-2.4c0-0.9-0.4-1.7-0.9-2.4c-1.3-1.3-3.5-1.3-4.8,0c-0.6,0.7-0.9,1.5-0.9,2.4
	c0,0.9,0.4,1.8,0.9,2.4c0.7,0.7,1.5,0.9,2.4,0.9S155.1,366.3,155.6,365.6 M165.6,375c0.7-0.6,0.9-1.5,0.9-2.4c0-0.9-0.4-1.7-0.9-2.4
	c-1.3-1.3-3.5-1.3-4.8,0c-0.7,0.7-0.9,1.5-0.9,2.4c0,0.9,0.4,1.8,0.9,2.4c0.6,0.6,1.5,0.9,2.4,0.9C164.1,375.9,165,375.7,165.6,375
	 M174.9,384.3c0.7-0.7,1.1-1.5,1.1-2.4c0-0.9-0.4-1.7-1.1-2.4c-1.5-1.3-3.7-1.3-5,0c-0.7,0.7-1.1,1.5-1.1,2.4c0,0.9,0.4,1.7,1.1,2.4
	c0.7,0.6,1.7,0.9,2.6,0.9C173.3,385.4,174.2,385.1,174.9,384.3 M84.3,274.4c9.6-6.2,20-9.2,31.6-9.4c11.4,0,21.9,3.1,31.6,9.4
	l20.2-20.2c-15.8-11.9-32.9-18-51.8-18s-36.2,6.1-51.6,18L84.3,274.4z M64.1,357.3c-6.4-9.7-9.6-20.2-9.6-31.4
	c0-11.4,3.1-21.9,9.6-31.4l-20-20c-11.8,15.4-17.6,32.5-17.6,51.6c0,18.7,5.9,36,17.8,51.6L64.1,357.3z M147.6,377.4
	c-9.6,6.4-20,9.7-31.4,9.9c-11.6,0-22.2-3.1-31.8-9.7l-20.2,20c15.6,12.1,32.9,18.2,52,18c18.9-0.2,36-6.2,51.5-18L147.6,377.4z
	 M167.2,294.3c6.4,9.7,9.7,20.4,9.6,32c-0.2,11.2-3.3,21.5-9.6,30.9l20.2,20c11.9-15.4,18-32.5,18-51.3c0.2-19.1-5.9-36.4-18-52
	L167.2,294.3z M188.3,383.6c7.7,0,14.2,6.2,14.2,14.2c0,7.7-6.2,14.2-14.2,14.2c-7.7,0-14.2-6.2-14.2-14.2
	C174.2,389.9,180.4,383.6,188.3,383.6 M43.9,383.6c7.7,0,14,6.2,14,14.2c0,7.7-6.2,14.2-14,14.2s-14-6.2-14-14.2
	C29.9,389.9,36.2,383.6,43.9,383.6 M188.5,239.3c7.7,0,14,6.2,14,14.2c0,7.9-6.2,14.2-14,14.2s-14-6.2-14-14.2
	C174.6,245.6,180.8,239.3,188.5,239.3 M43.7,239.3c7.7,0,14.2,6.2,14.2,14c0,7.7-6.2,14-14.2,14c-7.7,0-14.2-6.2-14.2-14
	C29.6,245.6,35.8,239.3,43.7,239.3 M310,352.5l-7-6.2c-4.2,5-12.7,7.9-19.8,7.9c-11.9,0-21.5-7.2-22.6-18.7h52.9
	c2.4-24.8-12.1-36.6-31.2-36.6c-18.7,0-32.3,13.4-32.3,32.3c0,19.8,13.4,32.5,32.9,32.5C292.7,363.6,303.6,359.9,310,352.5
	L310,352.5z M303.9,326.6h-43.2c1.8-11.9,11.2-18.6,22.1-18.6c12.1,0,20.4,6.4,21.1,18.2V326.6L303.9,326.6z M339.2,274.1h-10.3
	v88.4h10.3V274.1z M368.4,300.2h-9.6v62.3h10.3v-34.7c0-11.4,8.3-18.6,18.4-18.7c4.2,0,7.5,1.1,10.8,3.5l4.6-8.8
	c-3.9-2.9-9-4.8-14.5-4.6c-7.2,0-14.9,2.2-19.1,10.3L368.4,300.2L368.4,300.2z M408.9,331.4c0,18.9,13.6,32.2,32.3,32.2
	c18.7,0,32.3-13.2,32.3-32.2c0-19.3-13.4-32.7-32.3-32.7C422.7,298.7,408.9,312.1,408.9,331.4z M463.3,331.4
	c-0.2,13-9.4,22.4-22.2,22.4c-12.7,0-21.9-9.4-21.9-22.4c0-14,9.4-23.2,22.1-23.2C453.7,308.3,463.3,317.6,463.3,331.4z M488.4,300
	v62.5h10.3V329c0-11.2,7.9-20.2,19.1-20.4c11.9,0,18.9,7.5,18.9,19.5v34.4h10.3v-34.4c0-18.4-11.6-28.9-27.4-28.9
	c-8.3,0-16,3.5-21.3,10.8l-0.6-9.9L488.4,300L488.4,300z M626.3,274.1H616v37.3c-4.4-8.5-14.5-12.5-23.3-12.5
	c-17.6,0-31.4,11.4-31.4,32.3c0,20.6,13.8,32.3,31.6,32.3c9.2,0,18.4-4,23.3-12.7l0.6,11.4h9.7L626.3,274.1L626.3,274.1z
	 M593.6,308.6c12.3,0,22.1,9.2,22.1,22.4c0,13.6-9.7,22.8-22.1,22.8c-12.1,0-21.9-8.3-21.9-22.6c0-14.5,9.6-22.4,21.5-22.6H593.6
	L593.6,308.6z"/>
</svg>
